<svg width="200" height="200" viewBox="0 0 200 200" fill="none" xmlns="http://www.w3.org/2000/svg">
<path d="M82.7201 86.3596C84.5601 85.3996 85.9201 83.7996 86.5201 81.7996C87.8001 77.3596 90.6801 72.6396 95.1601 70.6796C99.8001 68.6396 106.4 70.3596 109.72 74.1596C112.96 77.9196 111.44 83.9996 116 86.8396C119.76 89.1596 125.52 93.3996 124.64 98.5996C123.68 104.2 116.08 107.24 111.08 107.24C108.32 107.24 105.2 106.52 102.84 104.96C100.76 103.88 98.2801 103.84 96.1601 104.84C91.4001 107.12 85.6401 108.68 80.4401 106.68C69.8801 102.64 75.4401 90.1596 82.7201 86.3596Z" fill="#EF837B"/>
<path d="M118.319 59.6177C119.718 53.3218 117.392 47.4485 113.123 46.4994C108.854 45.5502 104.259 49.8845 102.859 56.1804C101.459 62.4763 103.785 68.3495 108.054 69.2987C112.323 70.2479 116.919 65.9135 118.319 59.6177Z" fill="#EF837B"/>
<path d="M130.113 76.8248C131.924 71.7471 130.592 66.632 127.138 65.3998C123.683 64.1677 119.415 67.2851 117.604 72.3627C115.792 77.4404 117.125 82.5555 120.579 83.7877C124.034 85.0198 128.302 81.9025 130.113 76.8248Z" fill="#EF837B"/>
<path d="M91.9748 69.1823C96.2439 68.2331 98.57 62.3598 97.1702 56.064C95.7704 49.7681 91.1748 45.4337 86.9057 46.3829C82.6366 47.3321 80.3105 53.2054 81.7103 59.5012C83.1101 65.7971 87.7057 70.1315 91.9748 69.1823Z" fill="#EF837B"/>
<path d="M79.5148 83.7154C82.9692 82.4832 84.3014 77.3681 82.4903 72.2904C80.6792 67.2128 76.4105 64.0954 72.9561 65.3276C69.5016 66.5597 68.1694 71.6748 69.9805 76.7525C71.7917 81.8302 76.0603 84.9476 79.5148 83.7154Z" fill="#EF837B"/>
<path d="M99.9996 21.5195C67.5596 21.5195 40.6396 47.9195 40.0396 80.3595C39.7596 94.9595 46.5596 108.6 53.1996 121.36C58.4796 131.52 64.4796 141.4 71.3196 150.6C79.2396 161.24 88.4796 171.6 99.9996 178.4C101 179 110.56 168.92 111.32 168.2C120.52 159.08 128.84 149.04 136.16 138.32C147.52 121.72 159.96 102.2 159.96 81.4795C159.96 48.3995 133.12 21.5195 99.9996 21.5195ZM99.9996 126.36C87.9196 126.36 76.9596 121.6 68.8796 113.8C59.9596 105.24 54.5996 93.0395 55.1596 79.5595C56.0796 56.9195 74.1596 38.2795 96.7596 36.7195C123 34.8795 144.88 55.6395 144.88 81.4795C144.88 94.1995 139.6 105.64 131.12 113.8C123.04 121.6 112.08 126.36 99.9996 126.36Z" fill="#EF837B"/>
</svg>
