<svg width="200" height="200" viewBox="0 0 200 200" fill="none" xmlns="http://www.w3.org/2000/svg">
<g clip-path="url(#clip0_324_7786)">
<path d="M69.1319 147.683C69.1319 101.345 56.1201 94.997 52.1318 94.1553C46.0387 92.871 40.5395 90.5031 35.7886 87.1178C29.4044 82.5712 25.3763 78.1665 23.4761 73.6523C19.2796 63.6847 26.4875 54.2976 36.0562 54.2976H50.3833C61.2668 48.1303 71.1696 46.7025 79.8346 50.0582C92.2775 54.8767 97.2129 67.9636 98.0803 70.551C98.6992 71.9241 99.342 73.2616 100.002 74.5658C108.768 60.7248 120.981 49.9167 134.997 41.95C137.811 40.3508 141.389 41.335 142.989 44.1491C144.589 46.9632 143.604 50.5411 140.79 52.1408C139.123 53.0879 137.502 54.0781 135.918 55.0998C142.635 57.5025 149.273 61.4704 154.084 67.1212C156.011 67.6784 159.503 68.5509 162.879 68.6896C168.808 68.9389 172.776 74.9034 170.702 80.4628C166.242 92.4131 157.002 100.211 144.306 98.8735C142.825 99.6889 140.153 101.452 137.472 104.671C172.408 109.328 163.491 108.177 178.5 109.993C180.479 108.014 182.508 105.984 184.594 103.899C205.136 83.3437 205.135 49.9054 184.593 29.359C165.27 10.0309 134.583 8.8247 113.862 25.9045C111.446 27.8863 110.941 28.4529 100 39.4067C89.3005 28.6944 88.5733 27.9023 86.1484 25.9131C65.2562 8.69224 34.5863 10.1755 15.4067 29.359C-5.13543 49.9054 -5.13582 83.3441 15.4071 103.9C40.1488 128.641 57.272 145.771 69.1319 157.639V147.683Z" fill="white"/>
<path d="M133.913 116.022C130.058 115.863 125.74 114.444 126.229 114.592C112.827 110.54 101.997 100.256 94.4386 88.4502C90.6133 82.502 87.3514 75.5528 86.99 74.3458C86.9658 74.2692 83.7231 64.089 75.5403 60.9651C74.4376 60.5443 73.2744 60.2723 72.0577 60.1348C72.314 63.4884 73.1017 67.5833 75.1754 71.023C76.8465 73.7953 75.9537 77.397 73.1814 79.0682C70.4033 80.7425 66.8039 79.8411 65.1362 77.0743C62.2291 72.2515 60.9651 66.9293 60.4833 62.3342C55.1158 64.654 54.6614 66.0188 51.9673 66.0188H36.0565C35.2575 66.0188 34.5284 66.3975 34.199 66.9836C33.2765 68.6231 35.5142 72.5304 42.59 77.5697C46.0207 80.0142 50.0445 81.735 54.5512 82.6845C59.5362 83.7367 66.637 87.2146 72.1679 97.8098C77.9312 108.851 80.8539 125.631 80.8539 147.682V169.371C96.9889 185.52 96.1004 184.724 97.1093 185.297C98.0001 185.803 98.8 186.103 99.9999 186.077C101.004 186.1 101.859 185.87 102.647 185.434C104.1 184.698 98.6949 189.806 167.967 120.526C163.378 119.972 169.831 120.81 133.913 116.022Z" fill="white"/>
<path d="M144.384 87.0545C150.311 88.0895 154.903 85.7107 158.073 79.9783C153.031 79.2253 148.904 77.787 148.685 77.7097C147.595 77.326 146.643 76.6285 145.948 75.7052C140.798 68.8591 131.411 65.1018 123.983 64.2109C116.906 70.619 111.186 77.9101 106.936 85.9428C112.912 94.0373 119.545 99.134 125.204 101.681C131.98 90.913 140.91 87.4917 141.337 87.3335C142.31 86.9724 143.361 86.8763 144.384 87.0545Z" fill="white"/>
</g>
<defs>
<clipPath id="clip0_324_7786">
<rect width="200" height="200" fill="white"/>
</clipPath>
</defs>
</svg>
