<svg width="200" height="200" viewBox="0 0 200 200" fill="none" xmlns="http://www.w3.org/2000/svg">
<path d="M178.516 77.4785H138.672V84.8473C138.672 93.0359 135.686 100.537 130.754 106.332H164.137C167.373 106.332 169.996 108.956 169.996 112.192C169.996 115.428 167.373 118.051 164.137 118.051L73.0469 118.051V148.859C73.0469 160.705 82.6848 170.343 94.5312 170.343H145.179L172.568 185.779C173.462 186.282 174.454 186.533 175.445 186.533C176.467 186.533 177.488 186.266 178.401 185.733C180.199 184.682 181.304 182.756 181.304 180.674V170.163C191.838 168.791 200 159.76 200 148.859V98.9629C200 87.1164 190.362 77.4785 178.516 77.4785ZM108.911 129.77H164.137C167.373 129.77 169.996 132.393 169.996 135.629C169.996 138.865 167.373 141.489 164.137 141.489H108.911C105.675 141.489 103.051 138.865 103.051 135.629C103.051 132.393 105.674 129.77 108.911 129.77Z" fill="#EF837B"/>
<path d="M27.432 121.767L54.8219 106.331H105.469C117.315 106.331 126.953 96.6934 126.953 84.8469V34.9512C126.953 23.1047 117.315 13.4668 105.469 13.4668H21.4844C9.63789 13.4668 0 23.1047 0 34.9512V84.8465C0 95.748 8.1625 104.779 18.6957 106.151V116.662C18.6957 118.745 19.8008 120.671 21.5992 121.721C22.5117 122.254 23.5332 122.521 24.5551 122.521C25.5465 122.521 26.5383 122.27 27.432 121.767ZM35.8637 42.3207H91.0902C94.3262 42.3207 96.9496 44.9441 96.9496 48.1801C96.9496 51.416 94.3262 54.0394 91.0902 54.0394H35.8637C32.6277 54.0394 30.0043 51.416 30.0043 48.1801C30.0043 44.9441 32.6273 42.3207 35.8637 42.3207ZM35.8637 65.7582H91.0902C94.3262 65.7582 96.9496 68.3816 96.9496 71.6176C96.9496 74.8535 94.3262 77.4769 91.0902 77.4769H35.8637C32.6277 77.4769 30.0043 74.8535 30.0043 71.6176C30.0043 68.3816 32.6273 65.7582 35.8637 65.7582Z" fill="#EF837B"/>
</svg>
