<svg width="200" height="200" viewBox="0 0 200 200" fill="none" xmlns="http://www.w3.org/2000/svg">
<path fill-rule="evenodd" clip-rule="evenodd" d="M112.265 27.4645L130.97 38.2633L72.7797 71.8594V98.3184L89.6547 108.061V81.6023L147.845 48.0063L166.549 58.8051C167.791 59.5223 168.502 60.7535 168.502 62.1879V97.7563C165.875 97.2305 163.159 96.9531 160.378 96.9531C137.632 96.9531 119.193 115.392 119.193 138.137C119.193 143.687 120.293 148.978 122.283 153.809L112.265 159.593C111.023 160.31 109.601 160.31 108.359 159.593L57.534 130.249H7.8125C6.08672 130.249 4.6875 128.85 4.6875 127.124C4.6875 125.398 6.08672 123.999 7.8125 123.999H52.1223V96.6531H23.2398C21.5141 96.6531 20.1148 95.2539 20.1148 93.5281C20.1148 91.8023 21.5141 90.4031 23.2398 90.4031H52.1223V63.057H7.8125C6.08672 63.057 4.6875 61.6578 4.6875 59.932C4.6875 58.2063 6.08672 56.807 7.8125 56.807H57.5352L98.4656 33.1758H77.3586C75.6328 33.1758 74.2336 31.7766 74.2336 30.0508C74.2336 28.325 75.6328 26.9258 77.3586 26.9258H110.312C111.003 26.9266 111.668 27.1199 112.265 27.4645ZM160.378 103.204C141.084 103.204 125.443 118.845 125.443 138.138C125.443 157.432 141.084 173.072 160.378 173.072C179.672 173.072 195.312 157.432 195.312 138.138C195.312 118.844 179.672 103.204 160.378 103.204ZM180.115 131.352C173.227 138.304 166.385 145.302 159.464 152.222C157.441 154.245 154.16 154.245 152.137 152.222L140.655 140.741C138.632 138.718 138.632 135.437 140.655 133.414C142.679 131.391 145.961 131.391 147.984 133.414L155.789 141.22L172.776 124.063C174.787 122.032 178.068 122.027 180.092 124.041C182.117 126.054 182.123 129.325 180.115 131.352ZM57.8859 26.9266H23.2398C21.5141 26.9266 20.1148 28.3258 20.1148 30.0516C20.1148 31.7773 21.5141 33.1766 23.2398 33.1766H57.8859C59.6117 33.1766 61.0109 31.7773 61.0109 30.0516C61.0109 28.3258 59.6117 26.9266 57.8859 26.9266Z" fill="#EF837B"/>
</svg>
