<svg width="200" height="200" viewBox="0 0 200 200" fill="none" xmlns="http://www.w3.org/2000/svg">
<g clip-path="url(#clip0_324_7798)">
<path d="M87.6053 89.9629C84.5389 93.4004 80.4061 95.291 75.9682 95.291C73.0581 95.291 70.2807 94.4785 67.8467 92.9473C65.4131 94.4785 62.6358 95.291 59.7252 95.291C55.2924 95.291 51.1581 93.3996 48.0881 89.9629C42.0667 83.2238 42.0569 72.6348 48.0881 65.8848C51.7409 61.7918 57.0104 54.5371 67.8463 54.5371C78.601 54.5371 83.8346 61.6602 87.6045 65.8848C93.637 72.6348 93.637 83.2129 87.6053 89.9629Z" fill="#EF837B"/>
<path d="M37.1973 65.7891C40.4333 65.7891 43.0566 63.1657 43.0566 59.9297C43.0566 56.6936 40.4333 54.0703 37.1973 54.0703C33.9612 54.0703 31.3379 56.6936 31.3379 59.9297C31.3379 63.1657 33.9612 65.7891 37.1973 65.7891Z" fill="#EF837B"/>
<path d="M98.3477 65.7891C101.584 65.7891 104.207 63.1657 104.207 59.9297C104.207 56.6936 101.584 54.0703 98.3477 54.0703C95.1116 54.0703 92.4883 56.6936 92.4883 59.9297C92.4883 63.1657 95.1116 65.7891 98.3477 65.7891Z" fill="#EF837B"/>
<path d="M80.2969 47.6797C83.5329 47.6797 86.1562 45.0564 86.1562 41.8203C86.1562 38.5843 83.5329 35.9609 80.2969 35.9609C77.0608 35.9609 74.4375 38.5843 74.4375 41.8203C74.4375 45.0564 77.0608 47.6797 80.2969 47.6797Z" fill="#EF837B"/>
<path d="M55.4004 47.6797C58.6364 47.6797 61.2598 45.0564 61.2598 41.8203C61.2598 38.5843 58.6364 35.9609 55.4004 35.9609C52.1643 35.9609 49.541 38.5843 49.541 41.8203C49.541 45.0564 52.1643 47.6797 55.4004 47.6797Z" fill="#EF837B"/>
<path d="M63.5896 9.18025V19.3131C63.5896 22.5474 60.9646 25.1724 57.7302 25.1724C54.4958 25.1724 51.8708 22.5474 51.8708 19.3131V13.0318C46.1794 11.1373 33.2142 9.18416 20.4599 23.774C12.7486 32.5943 9.95171 47.4342 12.7802 64.4928C14.5537 75.1724 18.456 85.7857 23.8275 94.9888C20.4791 97.565 19.1279 99.7838 15.7959 104.376C8.59663 93.2037 3.47515 80.0162 1.22124 66.4107C-2.18501 45.8834 1.61187 27.5318 11.6396 16.0592C23.5814 2.39509 36.1716 -0.206469 44.6287 0.0122811C53.7462 0.254469 59.9806 3.7115 60.6642 4.10603C62.4724 5.15291 63.5896 7.0865 63.5896 9.18025Z" fill="#EF837B"/>
<path d="M136.232 67.3088C133.783 81.2619 128.372 94.6603 120.833 105.871C116.283 99.5959 115.511 98.2966 113.122 96.1525C127.775 71.9494 130.646 39.2228 117.145 23.7736C104.395 9.18376 91.4297 11.1369 85.7344 13.0314V19.3127C85.7344 22.547 83.1094 25.172 79.875 25.172C76.6406 25.172 74.0156 22.547 74.0156 19.3127V9.17985C74.0156 7.0861 75.1328 5.15251 76.9453 4.10563C77.625 3.7111 83.8594 0.254071 92.9809 0.0118835C101.438 -0.20296 114.024 2.39469 125.97 16.0627C136.162 27.7228 139.904 46.4025 136.232 67.3088Z" fill="#EF837B"/>
<path d="M109.97 132.516L94.9581 143.262C78.7073 154.905 56.8483 154.911 40.5893 143.262L25.5772 132.516C19.9022 128.457 18.5628 120.523 22.7022 114.817L28.5069 106.813C32.5655 101.215 40.4487 99.9224 46.0776 103.934L62.6014 115.704C65.6952 117.907 69.8518 117.907 72.9456 115.704L89.4694 103.934C95.1061 99.9209 102.983 101.219 107.04 106.813L112.845 114.817C116.977 120.512 115.657 128.449 109.97 132.516Z" fill="#EF837B"/>
<path d="M176.562 140.602V146.133C176.562 175.836 152.393 200 122.689 200H115.787C92.2078 200 72.1176 184.777 64.8359 163.641C68.7148 163.843 72.9496 163.647 77.1449 162.965C83.6527 177.855 98.5246 188.281 115.787 188.281H122.689C145.932 188.281 164.843 169.375 164.843 146.133V140.602C168.592 141.145 172.617 141.173 176.562 140.602Z" fill="#EF837B"/>
<path d="M170.702 70.7109C154.549 70.7109 141.404 83.8555 141.404 100.008C141.404 116.16 154.549 129.301 170.702 129.301C186.855 129.301 200 116.16 200 100.008C200 83.8555 186.855 70.7109 170.702 70.7109ZM170.702 105.867C167.468 105.867 164.843 103.242 164.843 100.008C164.843 96.7734 167.468 94.1484 170.702 94.1484C173.936 94.1484 176.561 96.7734 176.561 100.008C176.561 103.242 173.936 105.867 170.702 105.867Z" fill="#EF837B"/>
</g>
<defs>
<clipPath id="clip0_324_7798">
<rect width="200" height="200" fill="white"/>
</clipPath>
</defs>
</svg>
