<svg width="200" height="200" viewBox="0 0 200 200" fill="none" xmlns="http://www.w3.org/2000/svg">
<path d="M100.883 25.3672C81.9995 25.3672 66.6328 41.3505 66.6328 61.0005C66.6328 80.2922 81.1078 95.9172 100.024 96.5505C100.566 96.5005 101.158 96.4922 101.641 96.5505C101.758 96.5589 101.874 96.5672 101.991 96.5672H102.108C120.549 95.9255 135.058 80.3089 135.133 61.0089C135.133 41.3589 119.774 25.3755 100.883 25.3755V25.3672Z" fill="#EF837B"/>
<path d="M137.509 116.575C117.384 102.6 84.5343 102.584 64.2759 116.575C64.2759 116.575 64.276 116.575 64.2593 116.575C55.1426 122.925 50.126 131.534 50.1426 140.809C50.1593 150.059 55.176 158.625 64.2676 164.917C74.3676 171.95 87.626 175.467 100.893 175.467C114.159 175.467 127.418 171.95 137.518 164.917C146.634 158.559 151.651 149.959 151.634 140.684C151.618 131.434 146.601 122.867 137.509 116.575Z" fill="#EF837B"/>
<path d="M180.141 65.4249C181.291 79.9833 171.358 92.7083 157.55 94.4749L157.408 94.4916L157.2 94.5083C156.775 94.4749 156.358 94.5083 155.95 94.6249C148.966 94.9666 142.533 92.6333 137.691 88.4083C145.108 81.5333 149.35 71.1499 148.475 59.9249C147.966 53.8416 145.95 48.2666 142.891 43.5833C145.65 42.1666 148.791 41.2249 152.066 40.9249C166.333 39.6249 178.891 50.5916 180.141 65.4333V65.4249Z" fill="#EF837B"/>
<path d="M194.616 134.841C194.008 142.091 189.566 148.391 182.041 152.683C174.816 156.85 165.75 158.733 156.716 158.516C161.908 153.641 164.95 147.591 165.491 141.083C166.2 131.808 161.958 122.833 153.433 115.725C148.625 111.75 142.958 108.591 136.85 106.308C152.816 101.508 172.816 104.758 185.2 115.083C191.825 120.658 195.216 127.666 194.616 134.841Z" fill="#EF837B"/>
<path d="M21.5573 65.4249C20.4073 79.9833 30.3407 92.7083 44.149 94.4749L44.2907 94.4916L44.499 94.5083C44.924 94.4749 45.3407 94.5083 45.749 94.6249C52.7323 94.9666 59.1657 92.6333 64.0073 88.4083C56.5907 81.5333 52.349 71.1499 53.224 59.9249C53.7323 53.8416 55.749 48.2666 58.8073 43.5833C56.049 42.1666 52.9073 41.2249 49.6323 40.9249C35.3657 39.6249 22.8073 50.5916 21.5573 65.4333V65.4249Z" fill="#EF837B"/>
<path d="M7.0914 134.841C7.69974 142.091 12.1414 148.391 19.6664 152.683C26.8914 156.85 35.9581 158.733 44.9914 158.516C39.7997 153.641 36.7581 147.591 36.2164 141.083C35.5081 131.808 39.7497 122.833 48.2747 115.725C53.0831 111.75 58.7497 108.591 64.8581 106.308C48.8914 101.508 28.8914 104.758 16.5081 115.083C9.88307 120.658 6.4914 127.666 7.0914 134.841Z" fill="#EF837B"/>
</svg>
