<svg width="200" height="200" viewBox="0 0 200 200" fill="none" xmlns="http://www.w3.org/2000/svg">
<path fill-rule="evenodd" clip-rule="evenodd" d="M102.68 11.8617C122.871 21.0809 144.171 30.6133 166.904 29.2422L173.744 28.8297V103.68C173.744 146.079 142.854 182.747 101.109 190.025L100.001 190.218L98.8926 190.025C57.1477 182.747 26.2578 146.079 26.2578 103.68V28.8297L33.0977 29.2422C55.8301 30.6133 77.1297 21.0805 97.3211 11.8613L100.001 10.6379L102.68 11.8617ZM93.6965 110.418L74.8203 91.5418C71.4266 88.1477 65.9223 88.1477 62.5285 91.5418C59.1348 94.9359 59.1348 100.439 62.5285 103.834L87.566 128.871C90.9602 132.265 96.4637 132.265 99.8578 128.871C114.946 113.782 129.864 98.5238 144.883 83.366C148.252 79.9664 148.244 74.4828 144.848 71.1059C141.454 67.7309 135.956 67.7367 132.586 71.141L93.6965 110.418ZM100.001 17.7301C78.2727 27.6512 56.6816 37.1281 32.709 35.682V103.68C32.709 143.067 61.4625 176.95 100.001 183.669C138.539 176.951 167.293 143.067 167.293 103.68V35.682C143.32 37.1277 121.729 27.6512 100.001 17.7301ZM26.0852 18.6664C23.65 18.2238 21.3762 18.8234 19.4762 20.4094C17.5766 21.9957 16.5801 24.1254 16.5801 26.6V103.68C16.5801 152.49 52.9969 193.2 100.001 200C147.005 193.201 183.421 152.491 183.421 103.68V26.6004C183.421 24.1258 182.425 21.9957 180.525 20.4098C178.625 18.8238 176.351 18.2246 173.916 18.6668C149.076 23.1762 127.6 12.5461 100.001 0C72.4016 12.5461 50.9254 23.1762 26.0852 18.6664Z" fill="#EF837B"/>
</svg>
